<?xml version="1.0" encoding="UTF-8"?>
<svg width="281px" height="122px" viewBox="0 0 281 122" version="1.1" xmlns="http://www.w3.org/2000/svg" xmlns:xlink="http://www.w3.org/1999/xlink">
    <!-- Generator: Sketch 41.2 (35397) - http://www.bohemiancoding.com/sketch -->
    <title>Page 1</title>
    <desc>Created with Sketch.</desc>
    <defs>
        <polygon id="path-1" points="217.144729 0.13309368 0.00978702271 0.13309368 0.00978702271 115.626149 217.144729 115.626149 217.144729 0.13309368"></polygon>
        <polygon id="path-3" points="1.08049191e-20 0.05368551 1.08049191e-20 18.7121016 41.7953338 18.7121016 41.7953338 0.05368551 0 0.05368551"></polygon>
        <polygon id="path-5" points="15.4995766 7.25125993 15.4995766 0.0539227067 0.183476633 0.0539227067 0.183476633 7.25125993 15.4995766 7.25125993"></polygon>
    </defs>
    <g id="Page-1" stroke="none" stroke-width="1" fill="none" fill-rule="evenodd">
        <g id="Startseite-320px" transform="translate(-20.000000, -1672.000000)">
            <g id="Page-1" transform="translate(20.000000, 1672.000000)">
                <g id="Group-3" transform="translate(45.709706, 0.130458)">
                    <mask id="mask-2" fill="white">
                        <use xlink:href="#path-1"></use>
                    </mask>
                    <g id="Clip-2"></g>
                    <path d="M28.5871423,90.5763371 C29.3495908,90.0787512 29.8723291,89.7379787 30.720882,89.1842562 C29.8032331,89.0047774 29.2501988,88.8964576 28.5871423,88.7667901 L28.5871423,90.5763371 Z M150.071847,41.6932687 C150.711251,38.942051 150.356204,37.8838904 148.895354,38.1880292 C148.637306,41.6574257 148.778687,42.0577609 150.071847,41.6932687 L150.071847,41.6932687 Z M179.678449,25.5797092 C180.729772,22.683538 179.972904,21.6058745 176.944105,21.6865214 C176.150297,24.7924798 176.641676,25.4919464 179.678449,25.5797092 L179.678449,25.5797092 Z M176.808836,31.0241631 C178.933274,29.671615 180.797539,28.4848411 182.66207,27.2980672 C182.64081,27.1784146 182.619549,27.0590256 182.598555,26.9393731 C180.706651,26.5756716 178.814748,26.21197 176.808836,25.8261301 L176.808836,31.0241631 Z M31.6714844,113.390175 C31.6714844,112.241616 31.6975283,110.801042 31.6496926,109.362839 C31.6401254,109.073987 31.3964289,108.591423 31.1806366,108.541875 C29.2895304,108.108596 27.3800872,107.753328 25.475959,107.374868 L25.2636215,107.756491 C27.4234051,109.655118 29.5829229,111.553746 31.6714844,113.390175 L31.6714844,113.390175 Z M23.6563407,87.7631847 L23.6563407,93.7326339 C25.1073581,92.8070398 26.384838,92.0561806 27.5873754,91.2017456 C28.3391937,90.667526 28.2206674,88.7217228 27.4510435,88.5187878 C26.2370788,88.1988359 24.9856427,88.0198842 23.6563407,87.7631847 L23.6563407,87.7631847 Z M176.75223,46.4928113 C176.75223,47.6189683 176.726452,49.1873653 176.776945,50.7531268 C176.785449,51.0216861 177.076716,51.4631355 177.30739,51.5142645 C179.267327,51.949125 181.24374,52.3122995 183.215104,52.6968216 C183.26108,52.6014159 183.307055,52.5060101 183.353031,52.4106043 C181.115381,50.4044477 178.877731,48.3985546 176.75223,46.4928113 L176.75223,46.4928113 Z M118.364193,74.231379 C118.387048,73.8170755 118.422128,73.4736674 118.422394,73.1305229 C118.426114,68.8812766 118.37881,64.6312396 118.450563,60.3833111 C118.474481,58.9669835 117.796277,58.7677383 116.534211,58.9274507 C116.510293,59.409487 116.465646,59.8786093 116.466975,60.3477316 C116.478402,64.4649384 116.543778,68.5829359 116.488235,72.6990886 C116.470164,74.0347693 116.997952,74.4419569 118.364193,74.231379 L118.364193,74.231379 Z M53.5449074,82.2346577 C53.5449074,81.719941 53.5459704,81.2473925 53.5449074,80.7748441 C53.535606,76.7040224 53.4659784,72.6318829 53.5483622,68.562906 C53.5775951,67.1252307 52.9344702,66.8390134 51.6272258,66.9441706 C51.6022449,67.3872012 51.5575982,67.8128375 51.5570667,68.2384737 C51.5520174,72.353045 51.6083572,76.4689341 51.5235817,80.5821877 C51.495146,81.96399 52.0420679,82.3888356 53.5449074,82.2346577 L53.5449074,82.2346577 Z M16.8174246,98.9164351 C19.0332823,100.938405 21.0923451,102.817529 22.9778704,104.537732 L22.9778704,94.9808154 C20.8228704,96.3573467 18.883397,97.5965674 16.8174246,98.9164351 L16.8174246,98.9164351 Z M176.15136,32.2689184 C173.663636,33.8576089 171.424126,35.2879048 168.961383,36.8607822 C171.495082,39.1697598 173.871987,41.3358924 176.15136,43.413208 L176.15136,32.2689184 Z M31.4695113,89.6386196 C30.8346247,90.0120726 30.3844373,90.2642917 29.947006,90.5365407 C28.1534316,91.6516286 27.920631,93.1833919 29.2892646,94.8250563 C30.1875135,95.9021927 30.0509159,97.1419405 29.0439736,98.0580467 C28.744203,98.3305593 28.5382435,98.8502836 28.5262846,99.2632693 C28.4720708,101.1503 28.5018352,103.039967 28.5018352,104.92858 C28.5015695,107.62656 28.5018352,107.626823 31.2598313,107.800241 C31.2970369,107.802349 31.3366342,107.769932 31.4695113,107.713532 L31.4695113,89.6386196 Z M85.356205,78.2544978 C85.356205,75.0810701 85.3673667,72.1105773 85.3349447,69.1406116 C85.3322871,68.8978804 85.0691906,68.4909563 84.8616366,68.4437806 C83.2094434,68.0690098 81.5418364,67.7627626 79.7107906,67.4024872 C79.7107906,68.7015343 79.7368345,69.7459902 79.7044125,70.7886013 C79.6640179,72.080796 79.4330776,73.4467852 81.293622,73.7192978 C81.3061125,73.7211426 81.2952166,73.8800644 81.2952166,74.0337151 L79.7187632,74.0337151 C79.7187632,74.8623221 79.6446178,75.6935646 79.7562346,76.4992426 C79.7995525,76.8115515 80.22157,77.2414046 80.5431325,77.3170439 C82.0379993,77.6691492 83.557847,77.9160973 85.356205,78.2544978 L85.356205,78.2544978 Z M27.9679352,91.8121316 C26.4433039,92.7896454 25.1389828,93.5895253 23.886218,94.4621454 C23.660327,94.6194859 23.5503048,95.0767483 23.5503048,95.3953825 C23.5497733,98.6876721 23.5556199,101.980752 23.6409269,105.271724 C23.6518228,105.691035 24.0435444,106.347016 24.4023124,106.46535 C25.5046605,106.828788 26.6769018,106.984284 28.0216176,107.261804 C28.0216176,104.437055 28.0612149,101.855565 27.9913216,99.276974 C27.9756421,98.6916253 27.6888934,98.0388074 27.3365035,97.5530814 C26.6032879,96.5426236 26.3595914,95.0959876 27.1964511,94.5741549 C28.2658456,93.9073688 27.9976997,93.0676926 27.9679352,91.8121316 L27.9679352,91.8121316 Z M156.756094,48.1916665 C156.756094,49.0914324 156.833163,49.7492578 156.740149,50.3823094 C156.54482,51.7077116 157.114862,52.1813142 158.406161,52.4061239 C162.448281,53.1095438 166.466218,53.9508013 170.494784,54.7322325 C172.376323,55.0969882 174.260785,55.4467215 176.33978,55.840468 C176.33978,54.8310644 176.278922,54.0472613 176.354928,53.2763721 C176.453257,52.2788284 176.032834,51.9082745 175.065755,51.7319583 C171.550094,51.0912638 168.051441,50.3596439 164.544018,49.6754633 C162.03716,49.1865747 159.526315,48.7187701 156.756094,48.1916665 L156.756094,48.1916665 Z M187.938618,58.1064867 C187.938618,57.3355976 187.941275,56.8612043 187.938086,56.3868109 C187.91656,53.1424878 187.883075,49.8984282 187.874305,46.654105 C187.862612,42.3568922 187.889187,38.0591524 187.841883,33.7624667 C187.836568,33.2922902 187.56417,32.5498647 187.221347,32.4133448 C186.402027,32.0873312 185.466573,32.0475349 184.392395,31.8596224 L184.392395,53.5349165 C181.781361,53.0544615 179.343067,52.6056327 176.783323,52.1346655 C176.783323,53.2479085 176.818137,54.1184202 176.772959,54.9849787 C176.732299,55.7682548 177.107809,56.0581618 177.834912,56.183876 C179.357418,56.4471643 180.866104,56.7866191 182.384091,57.0767897 C184.149496,57.4146631 185.918886,57.7330337 187.938618,58.1064867 L187.938618,58.1064867 Z M183.756977,51.3896045 L183.756977,27.4301066 C181.595067,28.8016304 179.591813,29.9997371 177.685027,31.3333094 C177.211453,31.6645941 176.799003,32.4275766 176.784386,33.0026468 C176.700142,36.3349962 176.796877,39.6718261 176.714759,43.0044391 C176.684197,44.247086 177.007354,45.1766334 177.941745,46.0094572 C179.934104,47.7852695 181.863745,49.630396 183.756977,51.3896045 L183.756977,51.3896045 Z M2.19191327,83.5545254 C2.34419037,83.9387839 2.36013561,84.0837375 2.44065911,84.1667563 C6.88619374,88.7588836 11.3285393,93.354437 15.8144686,97.9075586 C16.0230856,98.1191907 16.7238791,98.1112842 17.0289648,97.9302241 C18.8129721,96.8707457 20.5783766,95.7719981 22.2773426,94.5844335 C22.6980314,94.2903096 23.0509528,93.6301122 23.0855008,93.1153955 C23.1790463,91.7177801 23.0156075,90.304088 23.0892214,88.9038371 C23.1418407,87.8991775 22.7485246,87.5196628 21.7968592,87.3446644 C18.2296419,86.6894745 14.6746492,85.9686602 11.1143415,85.2768366 C8.21496426,84.7136264 5.31452398,84.1570049 2.19191327,83.5545254 L2.19191327,83.5545254 Z M154.248173,21.3984592 C154.568406,21.8567759 154.687198,22.0876473 154.86047,22.2660719 C159.217243,26.753042 163.569498,31.2444924 167.968525,35.690612 C168.207438,35.932289 168.942514,35.9683956 169.277364,35.7891804 C170.441899,35.1661438 171.45708,34.2260544 172.664666,33.7332125 C175.811195,32.449715 176.763392,30.1929206 176.312939,26.9931377 C176.169697,25.9747734 175.901551,25.5712755 174.895406,25.3844172 C170.161263,24.5049447 165.441204,23.5495693 160.714767,22.6284556 C158.652781,22.2268026 156.587075,21.8428076 154.248173,21.3984592 L154.248173,21.3984592 Z M176.17953,25.0286223 C176.217267,24.3415426 176.256864,23.911426 176.261648,23.4807823 C176.284769,21.3578722 176.282643,21.3520741 174.24112,20.9535837 C166.385428,19.4194484 158.529737,17.8868945 150.67192,16.3627742 C150.088058,16.2497104 149.48958,16.209387 148.801808,16.1232056 C148.801808,18.1807548 148.801542,20.0617243 148.801808,21.9429573 C148.802074,26.6423502 148.783205,31.3420066 148.833167,36.0408724 C148.837951,36.4897012 149.232595,37.2879997 149.513763,37.3188353 C150.687333,37.4482392 150.823931,38.0971038 150.746597,39.0377204 C150.692914,39.6921196 150.767591,40.3562702 150.730386,41.0130414 C150.671122,42.0596058 151.19014,42.2823071 152.275746,42.0556525 L152.275746,20.3598014 C160.312681,21.9295162 168.14286,23.4589075 176.17953,25.0286223 L176.17953,25.0286223 Z M176.266166,51.3424287 C176.266166,49.5971884 176.202385,48.029055 176.288223,46.4688281 C176.346955,45.4046057 175.960814,44.6529559 175.226004,43.9258164 C173.284936,42.0050505 171.35689,40.0674174 169.512823,38.0559898 C168.794489,37.2724501 168.28371,37.2379248 167.412302,37.8061426 C163.199302,40.5531434 158.942453,43.2337292 154.704738,45.9433057 C154.36537,46.1604724 154.053375,46.420071 153.425132,46.8839222 C161.250793,48.4114687 168.681278,49.862058 176.266166,51.3424287 L176.266166,51.3424287 Z M152.896016,21.0342306 L152.896016,46.2843418 C158.035169,43.0073382 162.960389,39.8665909 168.064197,36.6117257 C162.982979,31.3933992 158.030917,26.3076393 152.896016,21.0342306 L152.896016,21.0342306 Z M15.8219097,98.7361656 C10.7359077,93.5181027 5.79288136,88.4468382 0.606955796,83.1262536 L0.606955796,108.433556 C5.76338266,105.147328 10.7114583,101.993403 15.8219097,98.7361656 L15.8219097,98.7361656 Z M1.49430875,108.705278 C1.51955539,108.830728 1.54453627,108.956179 1.56951716,109.08163 C11.3846134,111.002395 21.1999755,112.923161 31.0150718,114.844191 C30.8641234,114.253571 30.5747172,113.893032 30.2536863,113.562274 C27.5483095,110.775741 24.8368204,107.994742 22.1274573,105.211634 C20.5002449,103.540189 18.8310434,101.905904 17.2652202,100.179639 C16.553265,99.3947817 16.0270719,99.3694807 15.1540696,99.9413882 C11.244561,102.502585 7.28774819,104.992623 3.34847512,107.509279 C2.72873655,107.905134 2.11218704,108.306524 1.49430875,108.705278 L1.49430875,108.705278 Z M53.9794153,66.758103 C53.9794153,71.4825333 54.0450566,76.1358046 53.9395522,80.7851226 C53.9076617,82.1935437 54.3793753,82.6816417 55.7081458,82.8935373 C58.4135225,83.3247082 61.0955129,83.9016231 63.7849445,84.4292539 C70.5526385,85.7567645 77.3216612,87.0776864 84.0835086,88.4339241 C85.1138373,88.6408123 85.4207833,88.3169071 85.4000544,87.3159372 C85.351953,84.9898287 85.3211255,82.6595033 85.4133422,80.3357667 C85.4574573,79.2262135 85.0705194,78.7971511 84.0013906,78.6110835 C79.2167537,77.7790503 74.442747,76.8866638 69.6666143,76.0061371 C69.2337008,75.9262809 68.8140751,75.7757928 68.388337,75.6579851 C68.4263399,75.5009082 68.464077,75.3435678 68.501814,75.1864909 C72.0289025,75.8527499 75.555991,76.5192725 79.2603374,77.2190027 C79.2603374,76.3848611 79.2021373,75.8145349 79.2722963,75.2602854 C79.4176638,74.1130442 78.9494051,73.6497201 77.794172,73.4570637 C74.9168523,72.9768722 72.0623875,72.3625329 69.2018104,71.7871992 C68.9227685,71.7310627 68.6649871,71.5713503 68.3973727,71.4598678 C68.4372358,71.3275648 68.4773647,71.1949982 68.5174935,71.0626952 C72.0286367,71.7286907 75.53978,72.3944227 79.2505045,73.0983696 C79.2505045,71.4775258 79.1808769,70.0796468 79.2725621,68.6923099 C79.3464417,67.571424 78.894394,67.2024514 77.8218104,66.9979352 C69.8313818,65.4746055 61.8542409,63.8822253 53.8715192,62.3183087 C53.1590324,62.1786262 52.4372443,62.0871737 51.7276808,61.9749006 C51.1361122,65.5652674 51.2793536,65.8672978 53.9794153,66.758103 L53.9794153,66.758103 Z M79.9605995,51.5877955 C79.8420731,51.8083884 79.7660675,51.8840277 79.7658017,51.9599307 C79.7456044,56.653789 79.7115879,61.3479108 79.7610181,66.041242 C79.7642072,66.3577677 80.3507265,66.8429667 80.7477631,66.9491781 C82.0659035,67.302074 83.4127453,67.5782763 84.7654336,67.7640804 C85.6759072,67.8890039 85.8895735,68.2998813 85.872831,69.1511537 C85.8218062,71.7389692 85.9222613,74.3310016 85.8281843,76.9164451 C85.7859294,78.0784452 86.1858893,78.4872141 87.3041826,78.6993733 C95.3342086,80.2234936 103.351478,81.8127112 111.373797,83.3763643 C113.656891,83.8212398 115.943439,84.2489845 118.424785,84.72206 C118.424785,81.8245711 118.371635,79.1149946 118.451626,76.4088443 C118.48272,75.365179 118.152653,74.8296417 117.120996,74.7866827 C116.202815,74.7482041 115.981176,74.2919959 115.988617,73.4301814 C116.027418,68.9107944 115.974798,64.3906168 116.031138,59.8714934 C116.043629,58.8636711 115.677951,58.5171005 114.73479,58.3355133 C105.928496,56.6403478 97.1307063,54.9027505 88.3289304,53.1849196 C85.5257561,52.6380496 82.7183298,52.1135814 79.9605995,51.5877955 L79.9605995,51.5877955 Z M27.9301981,87.9028672 C28.000623,86.5347696 28.3221855,85.3920088 27.1977798,84.3488706 C26.3125529,83.527116 26.5817618,82.1766763 27.4691148,81.3341011 C27.6984606,81.1164073 27.9841462,80.7540235 27.9495982,80.4967969 C27.5079149,77.2074064 29.0955299,73.7108641 26.8642584,70.5706439 C26.5581097,70.1394731 26.8616009,69.1324415 27.1454263,68.5099321 C27.2639526,68.2495429 28.2270455,68.059522 28.5260188,68.2561317 C29.0609819,68.6079734 29.6352765,69.2389165 29.7258986,69.8242651 C29.8218359,70.4449297 29.4022101,71.1588916 29.1539958,71.8122366 C28.97222,72.2905832 28.5188435,72.7307148 28.5047585,73.1977287 C28.4356625,75.4787699 28.4276898,77.7648185 28.5050243,80.0453326 C28.5246901,80.6204027 28.8249922,81.2708487 29.1930616,81.7323279 C30.0288583,82.7810007 30.2047875,84.3351659 29.2387714,84.897322 C27.9976997,85.619454 28.4930653,86.6805137 28.5778409,87.5660479 C28.6086684,87.8875812 29.5855805,88.1342657 30.1447271,88.38464 C30.3400564,88.4721392 30.5779063,88.5042925 30.7950274,88.5000757 C31.8657507,88.478728 32.1804035,88.9554932 32.1692418,90.0268315 C32.1113075,95.4710218 32.1782775,100.91653 32.1152938,106.360457 C32.1006773,107.621025 32.3815794,108.196095 33.7608432,108.423541 C37.5978009,109.056592 41.4026024,109.880982 45.2206916,110.62578 C47.9406848,111.156046 50.6620069,111.679987 53.4532222,112.220268 C53.5100936,111.766959 53.5802527,111.469936 53.5799869,111.172913 C53.57228,102.127814 53.5467677,93.0829786 53.5613841,84.038143 C53.5627129,83.1715845 53.2036791,82.8326569 52.417047,82.8060381 C51.3410086,82.769668 51.0694079,82.2230615 51.0816326,81.1944186 C51.1345177,76.7601589 51.0808353,72.324845 51.1111313,67.8903217 C51.1175094,66.9742155 50.8158785,66.6089326 49.8735144,66.4289267 C42.4919285,65.0191879 35.1236302,63.5417163 27.7492196,62.0961345 C26.3880271,61.82942 25.0170017,61.6119897 23.5285129,61.3502828 L23.5285129,65.6105983 C23.5285129,72.2407719 23.5686418,78.8714727 23.4947622,85.5008557 C23.4801457,86.8064915 23.9191715,87.3138288 25.1557253,87.4210944 C26.0287275,87.4969974 26.8892393,87.7162725 27.9301981,87.9028672 L27.9301981,87.9028672 Z M150.215886,80.6609897 C150.248042,80.0521849 150.282058,79.7071956 150.282058,79.3622062 C150.284716,69.7017135 150.285513,60.0414843 150.28259,50.3809916 C150.281793,48.1415916 150.299864,45.9011374 150.226782,43.6638458 C150.213228,43.2513872 149.846222,42.5405879 149.565585,42.5007915 C148.364908,42.3302735 148.198812,41.6292256 148.27907,40.6477586 C148.325311,40.0808585 148.237346,39.5018352 148.295547,38.9370436 C148.393876,37.9787691 147.92668,37.6722583 147.036669,37.5004225 C138.702355,35.8914385 130.377076,34.2360694 122.047545,32.6038928 C120.249187,32.251524 118.443122,31.9378973 116.639981,31.6063491 C116.548827,31.9278823 116.483983,32.0501704 116.483717,32.172722 C116.474947,40.5157191 116.477871,48.8587162 116.455282,57.2017132 C116.453421,57.9486192 116.790398,58.2348365 117.469665,58.2567113 C118.686553,58.296244 118.910052,58.9814788 118.896765,60.0717928 C118.843614,64.4182897 118.913773,68.766368 118.858496,73.112865 C118.844677,74.198435 119.167302,74.6359311 120.272574,74.8449277 C127.831152,76.2731151 135.375379,77.7743064 142.924922,79.249406 C145.303421,79.7140479 147.683781,80.1710468 150.215886,80.6609897 L150.215886,80.6609897 Z M176.780932,56.5942262 C176.780932,58.011608 176.878729,59.2336979 176.754356,60.4328588 C176.619353,61.7358591 177.16096,62.1533252 178.387947,62.3878864 C189.026083,64.4217159 199.651464,66.5214334 210.281628,68.5963771 C212.3476,68.9996114 214.417825,69.381498 216.69454,69.8124053 C216.69454,69.0046189 216.695869,68.4026665 216.694275,67.8004505 C216.639263,48.5709175 216.570433,29.3413846 216.5606,10.1118516 C216.559803,8.86367009 216.123435,8.49680593 214.974048,8.27647659 C204.293125,6.22788813 193.623895,4.11920985 182.950147,2.03398769 C180.935465,1.64050479 178.915734,1.27284997 176.792093,0.87330538 C176.75914,1.50872887 176.717416,1.93884547 176.717151,2.36896208 C176.712899,7.98920508 176.749307,13.6097116 176.68712,19.2294275 C176.673301,20.4699661 177.008151,21.0297502 178.305829,21.2102832 C180.409007,21.5030893 180.397048,21.5866352 180.41379,23.7090182 C180.414587,23.796781 180.426015,23.8863886 180.413259,23.9723065 C180.201984,25.4036565 180.745983,26.2209308 182.279118,26.2443869 C182.410666,26.2462318 182.541949,26.3021048 182.672966,26.3005234 C184.176337,26.2818113 184.523943,27.0471658 184.459365,28.4503158 C184.337915,31.0963763 184.413921,31.153567 187.014325,31.6477267 C188.077873,31.849871 188.445942,32.2278043 188.438235,33.3536978 C188.382693,41.3886028 188.409268,49.4240349 188.406079,57.4592034 C188.405813,57.8455704 188.369936,58.2316738 188.341767,58.8012094 C184.504012,58.0685352 180.758473,57.3535191 176.780932,56.5942262 L176.780932,56.5942262 Z M118.911381,75.1598721 L118.911381,85.4370762 C107.830232,83.275424 96.9446784,81.1519868 85.8903708,78.9956056 L85.8903708,89.3460771 C75.204664,87.2645446 64.7057824,85.2193823 54.0293771,83.1396948 L54.0293771,112.941346 C46.6881858,111.511841 39.5247839,110.117125 32.2189379,108.694208 L32.2189379,115.626149 C30.3645057,115.298554 28.6458739,115.023406 26.9392011,114.688168 C18.4430424,113.019885 9.95166732,111.327882 1.45364837,109.66935 C0.59685714,109.502258 0.0571105567,109.346499 0.0608311142,108.236419 C0.0874065245,100.068157 0.0337241957,91.8993673 0.0098063264,83.730578 C0.00874330999,83.3840073 0.0517954747,83.0374366 0.0866092622,82.4974189 C7.71295476,83.9867504 15.2678124,85.4621136 23.0339446,86.9788544 L23.0339446,60.6028497 C32.4597111,62.4374341 41.6510825,64.226424 51.0648901,66.0586364 L51.0648901,61.1855629 C60.5026155,63.0241005 69.7091349,64.8175708 79.1521755,66.6571626 L79.1521755,50.8084727 C91.5501359,53.2278786 103.685531,55.5961554 116.001639,57.9994847 L116.001639,30.8462656 C126.787535,32.9496728 137.383417,35.0159193 148.223793,37.1298686 L148.223793,15.2961799 C157.655938,17.1315549 166.811166,18.9129018 176.197867,20.7395796 L176.197867,0.132988259 C179.762427,0.83034643 183.087011,1.48184658 186.412126,2.13097476 C196.211543,4.04409758 206.009099,5.96565405 215.813831,7.85110392 C216.639529,8.01002568 217.046399,8.26567097 217.047196,9.17624258 C217.067128,29.4230857 217.109648,49.6699287 217.144728,69.9165082 C217.144994,70.0440673 217.101144,70.17189 217.048791,70.4586344 C215.886914,70.2596527 214.732212,70.085445 213.587343,69.8616895 C201.533534,67.5063267 189.482649,65.1372592 177.426448,62.7956011 C176.638753,62.6424774 176.284237,62.3494078 176.324898,61.5099952 C176.386552,60.2391482 176.275733,58.9588134 176.360509,57.6908655 C176.425618,56.7191498 175.977291,56.3968259 175.115451,56.2310518 C169.25823,55.1054219 163.412171,53.9233919 157.548307,52.8330779 C156.53605,52.6449019 156.266575,52.2395592 156.263652,51.2783856 C156.254882,48.1679468 156.223257,48.1531879 153.19871,47.5048504 C152.473998,47.3496183 152.129315,47.0452159 152.190173,46.2666838 C152.251828,45.4810358 152.174759,44.6853728 152.209307,43.8962985 C152.248905,42.9960055 151.81918,42.7142685 150.803999,42.8971735 L150.803999,81.3828582 C140.120419,79.2981631 129.660337,77.2572177 118.911381,75.1598721 L118.911381,75.1598721 Z" id="Fill-1" fill="#000000" mask="url(#mask-2)"></path>
                </g>
                <g id="Group-6" transform="translate(0.000000, 103.442780)">
                    <mask id="mask-4" fill="white">
                        <use xlink:href="#path-3"></use>
                    </mask>
                    <g id="Clip-5"></g>
                    <path d="M0.263016836,13.1880551 C0.341945804,13.9333797 0.421140527,14.6789678 0.523721611,15.645676 C13.7986706,11.0121711 26.9075232,6.43664755 40.2544915,1.77784165 C39.4864622,1.25521835 38.924658,0.873068183 38.3628538,0.490918014 C38.4420485,0.345173846 38.5209775,0.199429678 38.6001722,0.05368551 C39.6270461,0.537303138 40.6536542,1.02118432 41.7953338,1.55909363 C41.3350477,2.70422637 40.9132959,3.75395336 40.4915442,4.80394389 C40.3451137,4.76414756 40.1986832,4.72435123 40.0525184,4.68429135 C40.1965571,4.0256753 40.3408616,3.3667957 40.5314073,2.49575687 C40.0264745,2.6291141 39.619605,2.70765255 39.2329328,2.84259109 C26.6345937,7.2391629 14.0399753,11.6462768 1.43658695,16.0291439 C0.706560434,16.2832079 0.303145705,16.621872 0.370913002,17.4301855 C0.405992543,17.852132 0.33450469,18.2825121 -7.97262308e-05,18.7121016 L-7.97262308e-05,13.2215261 C0.0876191278,13.210457 0.175317982,13.1991242 0.263016836,13.1880551" id="Fill-4" fill="#000000" mask="url(#mask-4)"></path>
                </g>
                <g id="Group-9" transform="translate(264.691087, 20.160398)">
                    <mask id="mask-6" fill="white">
                        <use xlink:href="#path-5"></use>
                    </mask>
                    <g id="Clip-8"></g>
                    <path d="M0.183476633,6.66301222 C4.74169101,5.05481889 9.29990538,3.44662555 14.0922491,1.75567694 C13.2466196,1.22356578 12.6518619,0.849322163 12.0568384,0.474814997 C12.1328441,0.334605417 12.2091156,0.194132286 12.2851212,0.0539227067 C13.3186389,0.517510395 14.3521566,0.980834531 15.4996829,1.49555128 C15.0444461,2.665985 14.6330587,3.72361854 14.2216714,4.78125208 C14.070723,4.74250996 13.919509,4.70376784 13.7685606,4.66502572 C13.8963884,4.01853305 14.0242161,3.37204038 14.2006768,2.47965385 C9.48088393,4.1123575 4.94313262,5.68180872 0.405647063,7.25125993 C0.331501668,7.05517736 0.257622028,6.85909479 0.183476633,6.66301222" id="Fill-7" fill="#000000" mask="url(#mask-6)"></path>
                </g>
                <path d="M241.000118,38.3208066 L241.000118,32.5961971 C241.096853,32.5801204 241.193853,32.5637802 241.290587,32.5477036 C241.397155,33.261402 241.503722,33.9748368 241.641117,34.8938421 C247.834517,32.7414142 253.952707,30.6153415 260.070633,28.4892688 C260.136274,28.6228896 260.201915,28.7562468 260.267556,28.889604 C259.906131,29.0946473 259.566497,29.3600441 259.180622,29.4957732 C253.893179,31.3556586 248.614239,33.2411085 243.296765,35.0127039 C241.985534,35.4496729 241.198637,35.976513 241.45695,37.4597828 C241.505051,37.7365122 241.372174,38.0443408 241.323009,38.3379375 C241.215379,38.3321394 241.107749,38.3266048 241.000118,38.3208066" id="Fill-10" fill="#000000"></path>
                <path d="M166.030673,59.4551869 C174.916427,61.1948926 183.801916,62.9348619 192.68767,64.6745676 C192.648338,64.8727585 192.609007,65.070686 192.569675,65.268877 C183.683124,63.5323339 174.796572,61.7955272 165.910021,60.0589842 C165.95015,59.8576306 165.990544,59.6565405 166.030673,59.4551869" id="Fill-12" fill="#000000"></path>
                <path d="M192.506904,62.5140486 C183.641879,60.7785598 174.777119,59.0430709 165.912094,57.3078456 C165.952223,57.1086004 165.992086,56.9093552 166.032215,56.71011 C174.902023,58.4458624 183.772098,60.1813513 192.642173,61.9171037 C192.596995,62.1160853 192.552082,62.315067 192.506904,62.5140486" id="Fill-14" fill="#000000"></path>
                <path d="M192.527845,54.2766304 C183.642091,52.5379789 174.756337,50.7990639 165.870317,49.0604124 L165.989109,48.4610955 C174.878318,50.1992199 183.767793,51.9373443 192.657268,53.6754687 C192.614216,53.8757681 192.570898,54.076331 192.527845,54.2766304" id="Fill-16" fill="#000000"></path>
                <path d="M166.064637,42.9753957 C174.925144,44.7095668 183.785652,46.4437379 192.646159,48.1781726 C192.607625,48.3758365 192.56909,48.5737639 192.530556,48.7716913 C183.667923,47.0414735 174.805289,45.3115192 165.942655,43.5815649 C165.983316,43.3794207 166.023976,43.17754 166.064637,42.9753957" id="Fill-18" fill="#000000"></path>
                <path d="M192.535154,68.0161413 C183.668002,66.2790712 174.800585,64.5422645 165.933434,62.8051943 C165.973031,62.6072669 166.012628,62.4090759 166.052492,62.2111485 C174.921237,63.9453196 183.789983,65.6794907 192.658995,67.4133983 C192.617537,67.6144883 192.576346,67.8153148 192.535154,68.0161413" id="Fill-20" fill="#000000"></path>
                <path d="M192.464676,46.020421 C183.590349,44.2833508 174.716022,42.5465441 165.841695,40.809474 C165.880761,40.6104923 165.920093,40.4117742 165.959159,40.2127926 C174.836409,41.9472273 183.713925,43.6813984 192.591175,45.415833 C192.54892,45.6171866 192.506931,45.8188038 192.464676,46.020421" id="Fill-22" fill="#000000"></path>
                <path d="M192.457367,51.5163993 C183.585432,49.7772207 174.713498,48.0377785 165.841563,46.2985999 C165.881957,46.0996183 165.922352,45.9003731 165.962746,45.7013915 C174.837339,47.440043 183.711931,49.1786945 192.586524,50.9176095 C192.543472,51.1171182 192.50042,51.3168905 192.457367,51.5163993" id="Fill-24" fill="#000000"></path>
                <path d="M166.041835,64.9537744 C174.925994,66.6926894 183.810154,68.4313409 192.694314,70.1699924 C192.654451,70.3692376 192.614588,70.5682192 192.574724,70.7672009 C183.690033,69.0301307 174.805076,67.2930605 165.920385,65.5559903 L166.041835,64.9537744 Z" id="Fill-26" fill="#000000"></path>
                <path d="M166.04505,51.208439 C174.900243,52.9460362 183.755435,54.6836335 192.610628,56.4212308 C192.570765,56.618104 192.530636,56.8152408 192.490773,57.0123776 C183.629999,55.2787336 174.769226,53.5450896 165.908187,51.8117091 L166.04505,51.208439 Z" id="Fill-28" fill="#000000"></path>
                <path d="M166.054352,37.4769664 C174.893865,39.2079748 183.733378,40.9389833 192.572891,42.6699918 C192.533825,42.8681828 192.494759,43.0666374 192.455427,43.2648283 C183.616446,41.5375096 174.77773,39.8099273 165.938749,38.0823449 C165.977283,37.8807278 166.015817,37.6788471 166.054352,37.4769664" id="Fill-30" fill="#000000"></path>
                <path d="M166.083053,53.9723335 C174.946484,55.7072952 183.810181,57.4419934 192.673612,59.1769552 L192.554022,59.7749543 C183.690326,58.0402561 174.826895,56.3055579 165.963198,54.5708597 C166.003327,54.371351 166.04319,54.1718422 166.083053,53.9723335" id="Fill-32" fill="#000000"></path>
                <path d="M184.850263,72.0097951 C178.552688,70.7729463 172.255113,69.535834 165.957803,68.2989852 C165.996869,68.1042204 166.035935,67.9097191 166.075001,67.7152179 C172.373905,68.9454778 178.672808,70.1757378 184.971712,71.4059978 C184.931318,71.6073514 184.890657,71.8084415 184.850263,72.0097951" id="Fill-34" fill="#000000"></path>
                <path d="M78.9427878,72.8973323 C83.9942418,73.8859152 89.0459616,74.8744982 94.0974156,75.8628176 C94.0575524,76.0604815 94.0176893,76.2584089 93.9778262,76.4560728 C88.926638,75.465645 83.8754497,74.4754807 78.8242615,73.4850529 C78.8638589,73.2892339 78.9031905,73.0931513 78.9427878,72.8973323" id="Fill-36" fill="#000000"></path>
                <path d="M78.9981976,83.2994599 C84.0451337,84.291469 89.0920699,85.2834781 94.1390061,86.2754873 C94.1004717,86.4689343 94.0622031,86.6621178 94.0239345,86.8555649 C88.9743408,85.8719894 83.9244814,84.8886775 78.8748877,83.905102 L78.9981976,83.2994599 Z" id="Fill-38" fill="#000000"></path>
                <path d="M78.9479435,96.245548 C84.004181,97.2401926 89.0606843,98.2348373 94.1169219,99.2292184 C94.0773245,99.4247739 94.0379929,99.6203293 93.9983956,99.8158848 C88.9429553,98.8249299 83.8877807,97.8337114 78.8326062,96.8424929 C78.8711405,96.6435113 78.9094091,96.4445296 78.9479435,96.245548" id="Fill-40" fill="#000000"></path>
                <path d="M78.9501758,70.1495408 C84.0050846,71.1386508 89.0599934,72.1274974 94.1149022,73.1166074 C94.0755706,73.3137442 94.036239,73.5106174 93.9969074,73.7077542 C88.9422643,72.7175899 83.8876213,71.7274257 78.8329782,70.7375249 C78.8720441,70.5414424 78.9111099,70.3456234 78.9501758,70.1495408" id="Fill-42" fill="#000000"></path>
                <path d="M78.9710375,86.0416377 C84.0214285,87.0360188 89.0718194,88.0301364 94.1222104,89.0245175 C94.082613,89.2187552 94.0430157,89.4127293 94.0036841,89.606967 L78.8400207,86.6399004 C78.8836044,86.4403917 78.9274538,86.2411465 78.9710375,86.0416377" id="Fill-44" fill="#000000"></path>
                <path d="M79.0114853,99.0195365 C84.0384899,99.9994223 89.0654945,100.979308 94.0927649,101.959194 C94.054762,102.156067 94.0167592,102.353204 93.9787563,102.550077 C88.9560038,101.571773 83.9329855,100.593468 78.9102329,99.6151637 C78.9439837,99.4164456 78.9777345,99.2179911 79.0114853,99.0195365" id="Fill-46" fill="#000000"></path>
                <path d="M78.969815,75.6558767 C82.0334283,76.2515038 85.0970416,76.8473946 88.1603892,77.4430217 C88.1226521,77.6348875 88.084915,77.8264897 88.0469122,78.0180918 L78.8568695,76.2438608 C78.8943409,76.0477783 78.9320779,75.8519593 78.969815,75.6558767" id="Fill-48" fill="#000000"></path>
                <path d="M88.0696873,104.141588 C85.0079343,103.542271 81.946447,102.942954 78.884694,102.343637 C78.9221653,102.153089 78.9593709,101.962541 78.9965765,101.771993 C82.0591267,102.368147 85.1214113,102.964038 88.1836958,103.559929 L88.0696873,104.141588 Z" id="Fill-50" fill="#000000"></path>
                <path d="M88.0565325,91.1908345 L78.8837638,89.3978914 C78.9217667,89.2041808 78.9595038,89.0107337 78.9975066,88.8170231 C82.054476,89.4118596 85.1114455,90.0066961 88.1681492,90.6015326 C88.1309436,90.7978787 88.093738,90.9944884 88.0565325,91.1908345" id="Fill-52" fill="#000000"></path>
                <path d="M150.889705,69.2130357 C150.779151,66.1326418 149.031552,63.1173451 146.50742,61.7906252 C143.853068,60.3953817 140.97628,61.4079479 139.807493,64.1488871 C138.321396,67.6330424 139.915124,72.3645886 143.220042,74.2798198 C146.169912,75.9892171 149.405203,74.7634374 150.419055,71.5199049 C150.652121,70.7743168 150.736631,69.9831342 150.889705,69.2130357 M151.300295,69.1529459 C151.270531,69.7158926 151.280364,70.0698427 151.228807,70.4148321 C150.90007,72.6115367 150.033977,74.5170165 147.809881,75.3522123 C145.560804,76.1966324 143.562599,75.4913676 141.833071,73.9382566 C139.040261,71.4302973 137.944557,67.0519106 139.297777,63.8492286 C140.649137,60.6512906 143.997638,59.5422644 146.962657,61.3850189 C149.909073,63.2164406 151.124632,66.0214229 151.300295,69.1529459" id="Fill-54" fill="#000000"></path>
                <path d="M109.135244,77.8070395 C108.239122,76.5720356 107.338747,75.3312335 106.49418,74.1671251 C105.413358,75.1301435 104.502619,75.9416196 103.613671,76.7335929 C105.060171,78.8156524 107.2747,79.2549933 109.135244,77.8070395 M109.471955,77.3661173 C111.054786,75.6129704 111.049737,72.8867902 109.299746,70.6531884 C108.56972,71.5226459 107.839693,72.3233164 107.206135,73.1930374 C107.041102,73.419692 107.041634,73.9486406 107.198428,74.1897905 C107.885934,75.2458427 108.658747,76.2470762 109.471955,77.3661173 M109.168464,70.2726195 C107.71532,68.4267024 105.767874,67.7509555 104.30038,68.5355493 C104.033031,68.678658 103.720239,69.3103917 103.821757,69.4693135 C104.589786,70.6713734 105.455879,71.8117622 106.276262,72.9505698 C107.336886,71.9685756 108.233806,71.1381237 109.168464,70.2726195 M103.1781,69.5749978 C101.530691,71.2098098 101.566036,74.2074485 103.227265,76.1508798 C104.107974,75.2511138 104.982305,74.3582001 105.934768,73.3851667 C105.014993,72.1137927 104.103456,70.8540149 103.1781,69.5749978 M111.149926,74.3969423 C111.154178,76.6932694 110.102589,78.5233734 108.440297,79.1126753 C106.612441,79.7607493 104.543279,79.0286023 103.090933,77.1547487 C101.668351,75.3196373 101.117709,73.2520731 101.635132,70.9628618 C102.354263,67.7812639 105.51966,66.5936993 108.209357,68.4823118 C110.006121,69.743671 111.145408,72.0357813 111.149926,74.3969423" id="Fill-56" fill="#000000"></path>
                <path d="M114.23472,77.2480724 C118.510704,78.0932832 122.786953,78.9384939 127.062936,79.7834411 C127.023871,79.9750433 126.984805,80.166382 126.946005,80.3579841 C122.670553,79.5225248 118.395366,78.6870655 114.12018,77.8518697 C114.158449,77.6505161 114.196452,77.449426 114.23472,77.2480724" id="Fill-58" fill="#000000"></path>
                <path d="M121.497009,81.2588043 C119.034797,80.7704428 116.572586,80.2820812 114.110374,79.7937197 C114.147314,79.6076521 114.184253,79.4213209 114.221193,79.2349898 C116.68181,79.7125457 119.142428,80.1898381 121.603311,80.6671305 C121.5677,80.8642672 121.532354,81.0616676 121.497009,81.2588043" id="Fill-60" fill="#000000"></path>
                <path d="M142.985195,64.8023375 L142.985195,70.6099659 C144.526303,69.9144525 145.863046,69.3111824 147.475376,68.5835157 C145.914868,67.2694463 144.566698,66.1340649 142.985195,64.8023375 M148.604565,68.8143872 C146.463119,69.7874206 144.555536,70.6542426 142.47787,71.5982853 L142.47787,63.651143 C144.525506,65.3768805 146.469497,67.0151187 148.604565,68.8143872" id="Fill-62" fill="#000000"></path>
            </g>
        </g>
    </g>
</svg>